<svg xmlns="http://www.w3.org/2000/svg" viewBox="0 0 64 64">
  <defs>
    <linearGradient id="bg" x1="0%" y1="0%" x2="100%" y2="100%">
      <stop offset="0%" stop-color="#ff0080" />
      <stop offset="50%" stop-color="#7928ca" />
      <stop offset="100%" stop-color="#00d4ff" />
    </linearGradient>
    <linearGradient id="glow" x1="0%" y1="0%" x2="100%" y2="100%">
      <stop offset="0%" stop-color="#ffffff" stop-opacity="0.95" />
      <stop offset="100%" stop-color="#d7f7ff" stop-opacity="0.95" />
    </linearGradient>
  </defs>

  <rect x="4" y="4" width="56" height="56" rx="16" fill="#080b14" />
  <rect x="6" y="6" width="52" height="52" rx="14" fill="url(#bg)" opacity="0.95" />
  <rect x="10" y="10" width="44" height="44" rx="12" fill="#090d17" opacity="0.92" />

  <path d="M22 24c0-3.314 2.686-6 6-6h8c3.314 0 6 2.686 6 6v3h4a4 4 0 0 1 4 4v7a4 4 0 0 1-4 4h-2.2l-2.5 5.2a1.4 1.4 0 0 1-2.54-.08L36.7 42H27.3l-2.06 5.12a1.4 1.4 0 0 1-2.54.08L20.2 42H18a4 4 0 0 1-4-4v-7a4 4 0 0 1 4-4h4v-3Z" fill="url(#glow)" />
  <circle cx="24" cy="34" r="3.2" fill="#ff0080" />
  <circle cx="40" cy="34" r="3.2" fill="#00d4ff" />
  <rect x="29" y="29" width="6" height="10" rx="2.2" fill="#0a1220" />
</svg>
